<?xml version="1.0" encoding="UTF-8" standalone="no"?>
<!-- Created with Inkscape (http://www.inkscape.org/) -->

<svg
   width="104mm"
   height="15mm"
   viewBox="0 0 104 15"
   version="1.1"
   id="svg1"
   xml:space="preserve"
   inkscape:version="1.3 (0e150ed6c4, 2023-07-21)"
   sodipodi:docname="Lin_logo.svg"
   xmlns:inkscape="http://www.inkscape.org/namespaces/inkscape"
   xmlns:sodipodi="http://sodipodi.sourceforge.net/DTD/sodipodi-0.dtd"
   xmlns="http://www.w3.org/2000/svg"
   xmlns:svg="http://www.w3.org/2000/svg"><sodipodi:namedview
     id="namedview1"
     pagecolor="#ffffff"
     bordercolor="#000000"
     borderopacity="0.25"
     inkscape:showpageshadow="2"
     inkscape:pageopacity="0.0"
     inkscape:pagecheckerboard="0"
     inkscape:deskcolor="#d1d1d1"
     inkscape:document-units="mm"
     inkscape:zoom="1.4805976"
     inkscape:cx="200.25697"
     inkscape:cy="39.511072"
     inkscape:window-width="1920"
     inkscape:window-height="1009"
     inkscape:window-x="-8"
     inkscape:window-y="-8"
     inkscape:window-maximized="1"
     inkscape:current-layer="layer2" /><defs
     id="defs1"><clipPath
       id="clip0_27_362"><rect
         width="286.61401"
         height="29.5606"
         fill="#ffffff"
         transform="translate(101.396,11.9395)"
         id="rect7"
         x="0"
         y="0" /></clipPath></defs><g
     inkscape:groupmode="layer"
     id="layer2"
     inkscape:label="backdrop"><rect
       style="fill:#110f2a;fill-opacity:1;stroke:#010d00;stroke-width:0.310492;stroke-opacity:0.952941"
       id="rect1"
       width="104.27182"
       height="15.279038"
       x="0.21022116"
       y="0.22436039" /></g><g
     inkscape:label="Layer 1"
     inkscape:groupmode="layer"
     id="layer1"><path
       d="m 12.438603,5.0542567 v 9.6226093 c -0.231113,0.0587 -0.471778,0.097 -0.718449,0.11255 V 5.0566367 c 0,-0.43466 -0.353245,-0.7879 -0.787929,-0.7879 H 5.3833031 v -0.71848 h 5.5525199 c 0.828622,0 1.50159,0.67535 1.50278,1.504 z"
       fill="#e5fd5c"
       id="path1"
       style="stroke-width:0.264583" /><path
       d="m 15.338807,5.0530367 v 6.1237093 c -0.03712,0.75438 -0.298159,1.45129 -0.718476,2.02845 V 5.0566367 c 0,-2.03326 -1.654863,-3.68812 -3.688106,-3.68812 H 5.3833031 V 0.65005672 h 5.5501119 c 2.427208,0 4.402984,1.97456998 4.405392,4.40297998 z"
       fill="#e5fd5c"
       id="path2"
       style="stroke-width:0.264583" /><path
       d="m 13.888705,5.0530167 v 8.9101293 c -0.221535,0.17484 -0.462227,0.3257 -0.718476,0.44786 V 5.0566167 c 0,-0.6131 -0.249052,-1.16991 -0.652595,-1.57343 -0.402325,-0.40235 -0.95795,-0.65261 -1.572233,-0.65261 H 5.3833031 v -0.71846 H 10.94421 c 1.622531,0 2.942088,1.31837 2.944495,2.9409 z"
       fill="#e5fd5c"
       id="path3"
       style="stroke-width:0.264583" /><path
       d="M 3.9461651,10.385236 V 0.76261672 c 0.231114,-0.0587 0.471805,-0.097 0.718476,-0.11256 V 10.382836 c 0,0.43468 0.353246,0.78793 0.787903,0.78793 h 5.5489489 v 0.71845 H 5.4489721 c -0.828648,-10e-4 -1.501589,-0.67535 -1.502807,-1.50398 z"
       fill="#e5fd5c"
       id="path4"
       style="stroke-width:0.264583" /><path
       d="M 1.0460941,10.386486 V 4.2627867 c 0.03712,-0.75438 0.298162,-1.45129 0.718463,-2.02846 v 8.1485593 c 0,2.03327 1.65486,3.68811 3.688119,3.68811 h 5.5489219 v 0.71847 H 5.4514591 c -2.427197,-10e-4 -4.40297,-1.97458 -4.405365,-4.40298 z"
       fill="#e5fd5c"
       id="path5"
       style="stroke-width:0.264583" /><path
       d="M 2.4961351,10.386436 V 1.4762967 c 0.221525,-0.17482 0.462211,-0.3257 0.718463,-0.44784 v 9.3543793 c 0,0.61309 0.249068,1.16991 0.652616,1.57345 0.402325,0.40232 0.95795,0.65259 1.572233,0.65259 h 5.5620979 v 0.71848 H 5.4406381 c -1.622531,0 -2.942109,-1.31839 -2.944503,-2.94092 z"
       fill="#e5fd5c"
       id="path6"
       style="stroke-width:0.264583" /><g
       clip-path="url(#clip0_27_362)"
       id="g7"
       transform="matrix(0.26458333,0,0,0.26458333,1.0460941,0.65005672)"><path
         d="m 101.396,11.7373 v 29.5606 h 41.385 V 35.3858 H 107.309 V 11.7373 Z m 46.303,29.5606 h 5.912 V 11.7373 h -5.912 z M 194.715,11.7373 V 33.9098 L 165.154,11.7373 h -5.912 v 29.5606 h 5.912 V 19.1255 l 29.561,22.1724 h 5.912 V 11.7373 Z m 11.576,0 v 29.5606 h 41.384 v -5.9121 h -35.472 v -5.9121 h 35.472 v -5.9121 h -35.472 v -5.9122 h 35.472 v -5.9121 z m 67.079,5.9121 h 14.776 v 5.9122 h -25.125 z m -1.476,-5.9121 -19.213,11.8243 v 17.7363 h 5.912 V 29.4737 h 29.561 v 11.8242 h 5.912 V 11.7373 Z m 35.087,0 -7.388,8.8722 V 41.306 h 41.385 V 23.5616 h -20.697 v 5.9121 h 14.785 v 5.9121 H 305.505 V 23.5616 l 4.436,-5.9122 h 31.037 v -5.9121 z m 39.644,0 v 29.5606 h 41.385 v -5.9121 h -35.472 v -5.9121 h 35.472 v -5.9121 h -35.472 v -5.9122 h 35.472 v -5.9121 z"
         fill="#e5fd5c"
         id="path7" /></g></g></svg>
